<svg xmlns="http://www.w3.org/2000/svg" width="112" height="112" viewBox="0 0 112 112"><path d="M67.92 44.359c.027 4.15.034 8.302.037 12.461M67.947 70.309c.006-3.255.009-6.499.01-9.738" fill="none"/><path d="M67.957 60.57c-.001 3.239-.004 6.483-.01 9.738l-.001 1.625c-1.215 6.146-6.272 9.968-12.848 9.454-2.958-.231-5.691-1.62-7.651-3.714l-4.962 6.092c5.028 4.98 12.515 7.099 19.946 4.582 7.194-2.436 11.954-7.368 13.28-14.323l.191-.024.002-1.224c.075-.588.134-1.185.162-1.799.079-1.733.034-3.729-.104-5.866.024-2.053.051-3.979.068-5.876h-8.073v1.335zM75.759 42.481c-.391-8.569-5.431-14.593-13.635-17.37-12.548-4.248-25.243 4.712-26.025 18.351-.31 5.409-.051 10.851-.051 16.802h-11.694c5.522 6.887 10.451 13.032 15.672 19.542 5.426-6.814 10.309-12.949 15.998-20.096h-11.945c0-5.968-.188-11.458.053-16.93.248-5.662 5.049-10.271 10.66-10.709 7.535-.589 13.08 4.514 13.129 12.288.02 3.051.029 6.102.033 9.156v.169h8.093c-.018-3.371-.094-6.934-.288-11.203z" fill="none"/><path d="M87.072 27.391c-9.248-9.24-18.705-18.27-28.072-27.391h-6c-8.78 8.535-17.658 16.973-26.313 25.632-9.007 9.011-17.8 18.236-26.687 27.368v6c8.535 8.78 16.973 17.658 25.631 26.313 9.012 9.007 18.237 17.8 27.369 26.687h6c10.424-10.179 20.927-20.28 31.246-30.563 7.379-7.352 14.512-14.95 21.754-22.437v-6c-8.301-8.546-16.5-17.191-24.928-25.609zm-7.751 31.844h-3.291c-.018 1.897-.044 3.824-.068 5.876.139 2.138.184 4.133.104 5.866-.028.614-.087 1.211-.162 1.799l-.002 1.224-.19.024c-1.326 6.955-6.086 11.888-13.28 14.323-7.432 2.517-14.918.399-19.947-4.581l4.962-6.092c1.96 2.094 4.693 3.482 7.651 3.714 6.575.514 11.633-3.308 12.848-9.454l.001-1.625c.006-3.255.009-6.499.01-9.738v-1.335h-2.903v-5.55h2.899v-.169c-.004-3.054-.014-6.105-.033-9.156-.049-7.774-5.594-12.877-13.129-12.288-5.611.438-10.412 5.047-10.66 10.709-.24 5.472-.053 10.962-.053 16.93h11.945c-5.689 7.146-10.572 13.281-15.998 20.096l-15.672-19.542h11.694c0-5.951-.259-11.393.051-16.802.782-13.639 13.478-22.599 26.025-18.351 8.204 2.777 13.244 8.801 13.635 17.37.194 4.268.271 7.831.287 11.204h3.275v5.548zM76.046 53.685h-8.093l.004 3.135v2.415h8.073c.018-1.848.026-3.671.016-5.55zM76.03 59.235h3.291v-5.55h-3.275c.01 1.879.002 3.702-.016 5.55zM67.953 53.685h-2.899v5.55h2.903v-2.415l-.004-3.135z"/></svg>