<svg xmlns="http://www.w3.org/2000/svg" width="112.125" height="111.5" viewBox="61.125 0.25 112.125 111.5" enable-background="new 61.125 0.25 112.125 111.5"><g><path d="M121.036.25h-7.697l-52.214 52.214v7.072l52.214 52.214h7.697l52.214-52.214v-7.072l-52.214-52.214zm16.752 77.121l-10.168 10.169h-20.821l-6.177-6.15 5.149-5.662 4.065 4.065h14.701l5.504-5.503v-16.476h7.746v19.557zm0-25.166h-7.746v-14.892l-5.15-5.106h-15.407l-5.15 5.106v20.422h10.168l-7.634 8.393-6.867 7.55-6.867-7.55-7.635-8.393h11.087v-23.547l9.729-9.728h21.744l9.729 9.728v18.017z"/><path stroke="#fff" stroke-width="8" stroke-miterlimit="10" d="M98.771 83.728M124.75 37.5" fill="none"/></g></svg>