<svg xmlns="http://www.w3.org/2000/svg" width="171.063" height="164" viewBox="0 0 171.063 164"><g fill="#212121"><path d="M0 62.917v-5.5h4.5v-33.782h-4.5v-5.5h10v39.281h4.906v5.5h-14.906zm12.559-32.25v-10.294l8.425 15.481 7.989-14.643v9.455l-6.771 12.281h-2.872l-6.771-12.28zm14.035 32.25v-5.5h4.938v-39.282h9.968v5.5h-4.469v33.781h4.469v5.5h-14.906zM48.375 62.917v-5.5h4.688v-33.782h-4.688v-5.5h14.906v5.5h-4.656v33.781h4.656v5.5h-14.906zM70.25 23.635v-5.5h15.156v5.5h-4.906v32.344h-5.5v-32.344h-4.75zm0 39.282v-5.5h26.531v-7.094h4.844v12.594h-31.375zM105.75 62.917v-5.5h4.688v-33.719h-4.688v-5.5h10.188v44.719h-10.188zm13.125-39.219v-5.5h18.875v11.594h-4.844v-6.094h-14.031zm0 17.781v-4.156h7.875v-3h4.844v10.156h-4.844v-3h-7.875zm0 21.438v-5.5h14.094v-6.031h4.844v11.531h-18.938zM142.719 37.198v-12.75l6.344-6.313h6.719v5.5h-4.282l-3.281 3.25v7.938l2.438 2.313h5.125v5.188h-7.875l-5.188-5.126zm0 19.062v-8.188h5.5v5.875l3.469 3.469h4.094v5.5h-6.406l-6.657-6.656zm15.562-32.625v-5.5h6.125l6.219 6.313v6.344h-5.438v-3.906l-3.311-3.25h-3.595zm0 39.282v-5.5h3.877l3.404-3.469v-9.281l-2.333-2.344h-4.949v-5.188h7.714l5.067 4.969v14.156l-6.594 6.656h-6.186z"/></g><g fill="#212121"><path d="M15.25 112.292v-12.188h29.875v4.625l-.491.688h-24.54v6.875h-4.844zm0 32.625v-4.531l.466-.781h24.753v-6.781h4.844v12.094h-30.063zm2.111-7.875l18.381-29.063h7.18l-18.604 29.063h-6.957zM49.875 144.917v-5.5h4.688v-33.719h-4.688v-5.5h10.188v44.719h-10.188zm13.125-39.219v-5.5h18.875v11.594h-4.844v-6.094h-14.031zm0 17.781v-4.156h7.875v-3h4.844v10.156h-4.844v-3h-7.875zm0 21.438v-5.5h14.094v-6.031h4.844v11.531h-18.938zM87.094 144.917v-5.5h4.688v-33.719h-4.688v-5.5h10.188v39.219h3.906v5.5h-14.094zm12.75-19.719v-4.156h10.5l3.188-3.201v-8.942l-3.188-3.201h-10.5v-5.5h12.906l6.281 6.253v12.74l-6.063 6.007h-13.124zm5.187 2.562h5.813l5.938 11.656h4.125v5.5h-13.781v-5.5h3.844l-5.939-11.656zM125.031 137.698v-30.656l6.906-6.906h6.781v5.5h-4.531l-3.656 3.625v26.25l3.906 3.906h4.281v5.5h-6.438l-7.249-7.219zm16.25 7.219v-5.5h3.594l3.906-3.906v-26.25l-3.656-3.625h-3.844v-5.5h6.094l6.906 6.906v30.656l-7.219 7.219h-5.781z"/></g><path fill="#CDCCCC" d="M132.372.5h-94.625"/><path stroke="#CDCCCC" stroke-miterlimit="10" fill="none" d="M132.372.5h-94.625"/><g fill="#212121"><path d="M81.555 86.504c.286 0 .661-.067 1.125-.203v1.008c-.177.073-.396.135-.656.188-.261.052-.469.078-.625.078-.651 0-1.15-.155-1.496-.465-.347-.31-.52-.772-.52-1.387 0-.344.047-.734.141-1.172l.992-4.703h-1.344l.109-.57 1.445-.609.977-1.781h.766l-.43 1.969h2.141l-.203.992h-2.133l-1.008 4.719c-.094.453-.141.797-.141 1.031 0 .292.075.516.227.672.151.155.362.233.633.233zM88.68 78.746c.989 0 1.771.293 2.344.879.573.586.859 1.392.859 2.418 0 .979-.188 1.904-.563 2.773-.375.87-.883 1.542-1.523 2.016-.641.474-1.365.711-2.172.711-1 0-1.784-.294-2.352-.883-.568-.588-.852-1.393-.852-2.414 0-.989.19-1.92.57-2.793.38-.872.893-1.542 1.539-2.008.647-.466 1.363-.699 2.15-.699zm1.843 3.117c0-.599-.163-1.084-.488-1.457-.326-.372-.767-.559-1.324-.559-.568 0-1.077.193-1.527.578-.451.386-.8.921-1.047 1.605-.248.685-.371 1.447-.371 2.285 0 .683.165 1.21.496 1.582.331.373.806.559 1.426.559.542 0 1.028-.19 1.461-.57.432-.38.77-.92 1.012-1.621.241-.7.362-1.5.362-2.402z"/></g><path fill="#CDCCCC" d="M132.372 163.5h-94.625"/><path stroke="#CDCCCC" stroke-miterlimit="10" fill="none" d="M132.372 163.5h-94.625"/></svg>